PathFileType	4	(X/Y/Z)	s03c0403.trc
DataRate	CameraRate	NumFrames	NumMarkers	Units	OrigDataRate	OrigDataStartFrame	OrigNumFrames
200	200	4	52	mm	200	1500	2000
Frame#	Time	racr			lacr			c7			jug			rlel			rdr			llel			ldr			s2			lic			ric			lasi			rasi			rpsi			lpsi			rgt			lgt			rth1			rth2			rth3			rth4			rlfc			rmfc			rsh1			rsh2			rsh3			rsh4			rlmal			rmmal			rcal			rtoe			rmt5			rmt1			lth1			lth2			lth4			lth3			llfc			lmfc			lsh1			lsh2			lsh3			lsh4			llmal			lmmal			lcal			ltoe			lmt1			lmt5			SBIKE			LBIKE			RBIKE			
		X1	Y1	Z1	X2	Y2	Z2	X3	Y3	Z3	X4	Y4	Z4	X5	Y5	Z5	X6	Y6	Z6	X7	Y7	Z7	X8	Y8	Z8	X9	Y9	Z9	X10	Y10	Z10	X11	Y11	Z11	X12	Y12	Z12	X13	Y13	Z13	X14	Y14	Z14	X15	Y15	Z15	X16	Y16	Z16	X17	Y17	Z17	X18	Y18	Z18	X19	Y19	Z19	X20	Y20	Z20	X21	Y21	Z21	X22	Y22	Z22	X23	Y23	Z23	X24	Y24	Z24	X25	Y25	Z25	X26	Y26	Z26	X27	Y27	Z27	X28	Y28	Z28	X29	Y29	Z29	X30	Y30	Z30	X31	Y31	Z31	X32	Y32	Z32	X33	Y33	Z33	X34	Y34	Z34	X35	Y35	Z35	X36	Y36	Z36	X37	Y37	Z37	X38	Y38	Z38	X39	Y39	Z39	X40	Y40	Z40	X41	Y41	Z41	X42	Y42	Z42	X43	Y43	Z43	X44	Y44	Z44	X45	Y45	Z45	X46	Y46	Z46	X47	Y47	Z47	X48	Y48	Z48	X49	Y49	Z49	X50	Y50	Z50	X51	Y51	Z51	X52	Y52	Z52	
1500	7.5000	779.058160	1405.025962	-90.517484	776.351039	1398.731998	-416.871006	729.356324	1492.549979	-256.604275	714.422268	1315.019757	-246.625492	623.324374	1204.682195	75.005512	748.703981	978.309224	-14.756210	636.835126	1205.996083	-587.567258	735.173783	977.233046	-462.667562	173.442823	1263.931561	-223.121367	335.440043	1266.794469	-421.765296	354.074328	1282.239304	-55.031001	352.296117	1198.445830	-379.855136	371.514276	1211.229808	-95.712030	208.788831	1312.862013	-181.620412	207.699127	1309.267296	-258.894004	304.409867	1182.982096	-32.124900	269.554592	1150.512436	-425.722415	397.144156	1059.916080	-17.577966	472.514813	1012.523895	-20.728523	515.064643	938.179995	-20.166680	495.863133	1035.170336	-37.906330	569.032656	821.231160	-38.873740	563.292405	798.233877	-162.141445	427.683854	727.589679	-18.197227	364.900542	668.763463	-34.761903	277.590439	647.788812	-39.522367	379.623846	645.510224	-60.847283	160.290121	597.248462	-63.975083	187.897682	583.465290	-147.697455	94.942347	625.162418	-102.427318	235.009960	349.178149	-121.310044	167.882029	442.811784	-46.747418	188.496260	434.270437	-161.838820	335.193714	998.417686	-442.809999	387.983293	929.749918	-439.820991	421.523758	944.312948	-436.239275	400.218456	842.458252	-425.513387	463.885274	731.545277	-403.930101	463.943562	719.506242	-284.302708	386.556323	576.816978	-432.423880	375.748553	494.154210	-415.421311	323.153351	421.034412	-414.850037	406.045160	484.259233	-392.835493	266.856784	308.442464	-403.659188	298.327927	311.981608	-307.238191	192.061238	274.615830	-359.924812	496.320674	205.851940	-359.019453	402.245182	223.188045	-314.392532	374.541906	211.417444	-432.718360	-212.999311	945.621539	-233.805447	-9.105470	80.487004	-433.511444	-9.030324	80.837220	-33.120692	
1501	7.5050	777.497459	1404.884484	-88.860632	776.006714	1398.681661	-415.363444	728.747055	1492.086483	-255.361102	714.308560	1314.698899	-245.119724	621.915323	1203.980867	76.243564	748.518237	978.156415	-14.458587	637.297126	1206.434886	-587.126513	735.334029	977.100723	-463.169099	173.075414	1263.371615	-224.524411	336.411239	1265.411941	-422.062601	352.720991	1281.617548	-55.451962	353.029229	1197.060649	-380.307497	372.094744	1208.056599	-104.918191	208.166640	1312.388798	-182.888019	208.169236	1308.160178	-260.797696	304.724086	1184.231706	-32.860735	268.987371	1148.275114	-425.613120	399.183273	1062.807795	-18.040997	475.360418	1016.901896	-21.252832	519.502284	943.384970	-20.570345	498.187041	1039.887833	-39.216803	574.751494	826.521579	-38.983539	568.280389	803.540383	-162.167002	433.599135	733.334294	-18.804406	368.784650	674.884650	-36.725023	282.735501	655.141496	-40.228239	385.249574	651.284154	-61.914026	164.685411	605.533428	-64.589380	192.182154	592.237607	-148.369259	98.161556	632.328690	-102.823930	243.689021	359.103516	-121.618949	175.255580	451.450003	-46.945956	195.598154	443.186159	-162.410711	331.395392	994.744869	-442.694056	382.796415	924.984698	-439.648600	416.544739	938.969084	-436.317878	393.311323	837.598278	-424.890661	455.170904	726.116117	-403.080747	455.339016	713.912971	-284.120648	378.549015	571.605642	-432.635254	368.519359	488.657913	-415.388064	316.373285	415.131040	-414.828813	398.942623	478.794943	-392.771183	260.550817	302.252693	-403.549400	292.373942	306.077769	-307.429404	186.013199	269.454679	-360.090508	489.360596	196.377621	-358.736645	395.456117	215.212739	-314.310254	367.707275	203.565983	-432.679172	-213.018146	945.605818	-233.857708	-9.118317	80.441175	-433.522368	-9.030275	80.810287	-33.120814	
1502	7.5100	776.047587	1404.542630	-87.052110	775.644421	1398.562444	-413.907958	728.182433	1491.615136	-254.059192	714.066999	1314.231200	-243.739991	620.568595	1203.110888	77.376721	748.389950	978.054850	-14.148210	637.862413	1206.909214	-586.589683	735.511963	976.947640	-463.576271	172.572216	1262.392980	-225.909980	337.609941	1264.344754	-422.371605	351.301495	1281.067913	-55.828060	353.786987	1195.773385	-380.439284	371.433440	1207.717076	-105.529562	207.504878	1311.850861	-184.445665	208.272295	1307.351464	-262.772807	304.712731	1185.792290	-33.652379	268.670039	1146.163080	-425.737200	400.950280	1065.827605	-18.371049	477.901208	1021.297268	-21.541345	523.502012	948.676407	-20.921633	500.228261	1044.532959	-40.302020	580.591547	832.001907	-39.185002	573.973068	809.319498	-162.827853	439.436751	739.055369	-19.520450	374.125937	681.262332	-37.713067	287.994355	662.223387	-41.003176	390.255059	657.765653	-63.237184	169.432115	613.347735	-65.197852	196.690692	600.682503	-149.156405	101.709472	638.789173	-103.464743	253.763224	369.273226	-121.606779	182.463136	459.680911	-47.573614	203.002377	450.948343	-163.222099	327.745247	991.459307	-442.571768	377.730642	920.648730	-439.501235	411.735805	933.968129	-436.426567	386.695014	832.874658	-423.869460	446.605342	721.288662	-402.594986	446.779931	708.763039	-283.861663	370.910926	566.621844	-432.376671	361.260752	483.550716	-415.362697	309.495889	409.833840	-414.863305	391.707560	474.091515	-393.185088	254.012896	296.755772	-403.521872	286.229357	300.910488	-307.630291	179.756227	265.018091	-360.186509	481.883801	187.454711	-358.584927	388.334880	207.758657	-314.305602	360.436745	196.285516	-432.630734	-213.047643	945.591879	-233.916535	-9.132953	80.422684	-433.535892	-9.028260	80.813006	-33.143411	
1503	7.5150	774.829635	1404.726849	-83.561517	775.331221	1398.443131	-412.417052	727.705610	1491.172305	-252.620290	713.692359	1313.928548	-242.391235	619.279556	1202.165627	78.371089	748.495618	977.886461	-13.478314	638.248223	1207.398811	-586.083490	736.083898	976.922903	-463.753800	172.018553	1261.390401	-227.536781	339.056746	1263.479481	-422.758991	349.791092	1280.380948	-56.634370	354.582672	1194.647770	-380.216887	370.697232	1207.452955	-106.002325	206.800481	1311.286508	-186.248592	207.398684	1306.654463	-268.775564	304.389792	1187.534662	-34.472647	268.530499	1144.257183	-425.914116	402.417047	1069.019731	-18.595741	480.347606	1025.808159	-22.167073	527.019071	953.971601	-21.204644	501.921097	1049.299636	-41.024977	586.240817	837.501687	-39.412874	579.577597	815.264145	-163.535985	445.165422	744.838606	-20.320534	379.329321	687.375117	-38.518647	293.163075	669.072611	-41.842055	395.374528	664.126742	-64.590570	174.469507	620.590858	-65.872206	201.345861	608.777886	-150.162001	105.409687	644.426164	-104.337168	263.162017	378.288374	-122.119098	190.136071	467.428527	-48.107674	210.227981	459.085123	-164.333178	324.205970	988.606520	-442.492642	372.772896	916.851698	-439.426108	407.055512	929.428282	-436.513057	379.845982	829.117036	-423.995930	438.179022	716.933735	-402.189808	438.045631	703.981160	-283.712823	363.336318	562.516253	-433.021952	353.986971	479.029946	-415.392964	302.515020	405.085576	-414.931488	384.295241	469.120766	-392.071931	247.341842	291.873005	-403.400455	279.917452	296.461333	-307.841056	173.302595	261.236717	-360.369993	474.120503	178.647410	-358.304775	380.858194	200.758928	-314.296107	352.842746	189.386317	-432.610721	-213.073487	945.583698	-233.956630	-9.129884	80.422823	-433.558634	-9.033098	80.804265	-33.116197	
